<svg width="18" height="18" viewBox="0 0 18 18" fill="none" xmlns="http://www.w3.org/2000/svg">
<path fill-rule="evenodd" clip-rule="evenodd" d="M8.36482 0.666688H14.1808C14.5802 0.666674 14.9247 0.666662 15.2084 0.689847C15.5079 0.714317 15.8058 0.768345 16.0925 0.914401C16.5201 1.1323 16.8678 1.47998 17.0857 1.90762C17.2318 2.19427 17.2858 2.49216 17.3103 2.79167C17.3334 3.07543 17.3334 3.41994 17.3334 3.81929V9.6353C17.3334 10.0346 17.3334 10.3792 17.3103 10.6629C17.2858 10.9624 17.2318 11.2603 17.0857 11.547C16.8678 11.9746 16.5201 12.3223 16.0925 12.5402C15.8058 12.6862 15.5079 12.7403 15.2084 12.7647C14.9247 12.7879 14.5801 12.7879 14.1808 12.7879H12.788V14.1807C12.788 14.5801 12.788 14.9246 12.7648 15.2084C12.7403 15.5079 12.6863 15.8058 12.5402 16.0924C12.3224 16.5201 11.9747 16.8678 11.547 17.0856C11.2604 17.2317 10.9625 17.2857 10.663 17.3102C10.3792 17.3334 10.0347 17.3334 9.63536 17.3334H3.81935C3.42 17.3334 3.07549 17.3334 2.79173 17.3102C2.49222 17.2857 2.19433 17.2317 1.90768 17.0856C1.48004 16.8678 1.13236 16.5201 0.914462 16.0924C0.768406 15.8058 0.714378 15.5079 0.689908 15.2084C0.666723 14.9246 0.666735 14.5801 0.666749 14.1807V8.36476C0.666735 7.96541 0.666723 7.62089 0.689908 7.33712C0.714379 7.03762 0.768406 6.73972 0.914462 6.45307C1.13236 6.02543 1.48004 5.67775 1.90768 5.45986C2.19433 5.3138 2.49222 5.25977 2.79173 5.2353C3.07549 5.21212 3.42001 5.21213 3.81937 5.21214L5.2122 5.21214L5.2122 3.81931C5.21219 3.41995 5.21218 3.07543 5.23536 2.79167C5.25983 2.49216 5.31386 2.19427 5.45992 1.90762C5.67781 1.47998 6.02549 1.13229 6.45313 0.914401C6.73979 0.768345 7.03768 0.714318 7.33718 0.689847C7.62095 0.666662 7.96547 0.666674 8.36482 0.666688ZM3.84857 6.72729C3.41178 6.72729 3.12976 6.72788 2.91511 6.74542C2.7093 6.76224 2.633 6.79078 2.59554 6.80986C2.453 6.8825 2.3371 6.99839 2.26447 7.14094C2.24539 7.17839 2.21684 7.2547 2.20003 7.4605C2.18249 7.67515 2.1819 7.95718 2.1819 8.39396V14.1515C2.1819 14.5883 2.18249 14.8703 2.20003 15.085C2.21684 15.2908 2.24539 15.3671 2.26447 15.4046C2.3371 15.5471 2.453 15.663 2.59554 15.7356C2.633 15.7547 2.7093 15.7833 2.91511 15.8001C3.12976 15.8176 3.41178 15.8182 3.84857 15.8182H9.60614C10.0429 15.8182 10.325 15.8176 10.5396 15.8001C10.7454 15.7833 10.8217 15.7547 10.8592 15.7356C11.0017 15.663 11.1176 15.5471 11.1902 15.4046C11.2093 15.3671 11.2379 15.2908 11.2547 15.085C11.2722 14.8703 11.2728 14.5883 11.2728 14.1515V8.39396C11.2728 7.95718 11.2722 7.67515 11.2547 7.4605C11.2379 7.2547 11.2093 7.1784 11.1902 7.14094C11.1176 6.99839 11.0017 6.8825 10.8592 6.80986C10.8217 6.79078 10.7454 6.76224 10.5396 6.74542C10.325 6.72788 10.0429 6.72729 9.60614 6.72729H3.84857ZM12.788 11.2727V8.36478C12.788 7.96541 12.788 7.62089 12.7648 7.33712C12.7403 7.03762 12.6863 6.73972 12.5402 6.45307C12.3224 6.02543 11.9747 5.67775 11.547 5.45986C11.2604 5.3138 10.9625 5.25977 10.663 5.2353C10.3792 5.21212 10.0347 5.21213 9.63534 5.21214L6.72736 5.21214V3.84851C6.72736 3.41172 6.72794 3.1297 6.74548 2.91505C6.7623 2.70924 6.79084 2.63294 6.80993 2.59548C6.88256 2.45294 6.99845 2.33704 7.141 2.26441C7.17846 2.24533 7.25476 2.21678 7.46056 2.19997C7.67521 2.18243 7.95724 2.18184 8.39402 2.18184H14.1516C14.5884 2.18184 14.8704 2.18243 15.0851 2.19997C15.2909 2.21678 15.3672 2.24533 15.4046 2.26441C15.5472 2.33704 15.6631 2.45294 15.7357 2.59548C15.7548 2.63294 15.7833 2.70924 15.8001 2.91505C15.8177 3.1297 15.8183 3.41172 15.8183 3.84851V9.60608C15.8183 10.0429 15.8177 10.3249 15.8001 10.5395C15.7833 10.7453 15.7548 10.8216 15.7357 10.8591C15.6631 11.0017 15.5472 11.1175 15.4046 11.1902C15.3672 11.2093 15.2909 11.2378 15.0851 11.2546C14.8704 11.2722 14.5884 11.2727 14.1516 11.2727H12.788Z" fill="#98A2B3"/>
</svg>
