<svg width="18" height="18" viewBox="0 0 18 18" fill="none"
	xmlns="http://www.w3.org/2000/svg">
	<path fill-rule="evenodd" clip-rule="evenodd"
		d="M14.4451 2.20708C14.0953 2.20708 13.6594 2.34903 13.2086 2.79981L12.2128 3.7956L14.2044 5.78717L15.2002 4.79137C15.651 4.34058 15.7929 3.90469 15.7929 3.55492C15.7929 3.1949 15.6431 2.85767 15.3927 2.60728C15.1424 2.3569 14.8051 2.20708 14.4451 2.20708ZM16.2894 5.8806C16.9939 5.17611 17.3333 4.36043 17.3333 3.55492C17.3333 2.75965 17.0018 2.03787 16.482 1.51806C15.9621 0.998248 15.2404 0.666692 14.4451 0.666687C13.6396 0.666682 12.8239 1.00609 12.1194 1.71058L10.4591 3.37086L10.4586 3.37143L10.4573 3.37264L10.4567 3.37329L10.4552 3.3748L10.454 3.37602L10.4534 3.37664L2.011 11.819C1.72667 12.1033 1.52146 12.4569 1.41566 12.8449L0.722643 15.386C0.409033 16.5359 1.46416 17.591 2.61406 17.2774L5.15514 16.5844C5.54307 16.4786 5.89668 16.2733 6.18101 15.989L14.6239 7.5461L14.625 7.54504L14.6263 7.54368L14.627 7.54298L14.7485 7.42158L16.2894 5.8806ZM13.1152 6.8764L11.1236 4.88483L3.10023 12.9082C3.00545 13.003 2.93705 13.1209 2.90178 13.2502L2.20876 15.7913L4.74983 15.0982C4.87914 15.063 4.99701 14.9946 5.09179 14.8998L6.72802 13.2636L13.1152 6.8764ZM10.7379 3.40983C10.7379 3.40983 10.7379 3.40984 10.7379 3.40983V3.40983ZM14.2044 6.8764L14.6083 7.2803C14.6083 7.28029 14.6083 7.28031 14.6083 7.2803C14.5281 7.20008 14.4022 7.07415 14.2044 6.8764Z"
		fill="#98A2B3" />
</svg>