<svg width="20" height="20" viewBox="0 0 20 20" fill="none" xmlns="http://www.w3.org/2000/svg">
<path fill-rule="evenodd" clip-rule="evenodd" d="M10 2.5C8.06701 2.5 6.5 4.067 6.5 6C6.5 7.933 8.06701 9.5 10 9.5C11.933 9.5 13.5 7.933 13.5 6C13.5 4.067 11.933 2.5 10 2.5ZM4.5 6C4.5 2.96243 6.96244 0.5 10 0.5C13.0376 0.5 15.5 2.96243 15.5 6C15.5 9.03757 13.0376 11.5 10 11.5C6.96244 11.5 4.5 9.03757 4.5 6ZM10 15.5C6.8088 15.5 3.89333 16.889 1.7276 19.186C1.34873 19.5878 0.715842 19.6065 0.314 19.2276C-0.0878419 18.8487 -0.106465 18.2158 0.272404 17.814C2.77826 15.1562 6.20523 13.5 10 13.5C13.7948 13.5 17.2217 15.1562 19.7276 17.814C20.1065 18.2158 20.0878 18.8487 19.686 19.2276C19.2842 19.6065 18.6513 19.5878 18.2724 19.186C16.1067 16.889 13.1912 15.5 10 15.5Z" fill="#98A2B3"/>
</svg>
