<svg xmlns="http://www.w3.org/2000/svg" viewBox="0 0 160 200" role="img" aria-label="Conejito">
  <ellipse cx="80" cy="182" rx="44" ry="9" fill="#e2d4ff" opacity=".6"/>
  <ellipse cx="58" cy="52" rx="14" ry="42" fill="#f5eefc" transform="rotate(-10 58 52)"/>
  <ellipse cx="102" cy="52" rx="14" ry="42" fill="#f5eefc" transform="rotate(10 102 52)"/>
  <ellipse cx="58" cy="54" rx="7" ry="30" fill="#ffc4d4" transform="rotate(-10 58 54)"/>
  <ellipse cx="102" cy="54" rx="7" ry="30" fill="#ffc4d4" transform="rotate(10 102 54)"/>
  <ellipse cx="80" cy="140" rx="46" ry="40" fill="#f5eefc"/>
  <circle cx="80" cy="112" r="38" fill="#fbf8ff"/>
  <circle cx="66" cy="108" r="5.5" fill="#2e2545"/>
  <circle cx="94" cy="108" r="5.5" fill="#2e2545"/>
  <circle cx="67.8" cy="106.2" r="1.8" fill="#fff"/>
  <circle cx="95.8" cy="106.2" r="1.8" fill="#fff"/>
  <path d="M76 120h8l-4 4z" fill="#ff8fab"/>
  <path d="M80 124c-2 5-7 5-9 2M80 124c2 5 7 5 9 2" stroke="#2e2545" stroke-width="2.2" stroke-linecap="round" fill="none"/>
  <circle cx="58" cy="122" r="5" fill="#ffc4d4" opacity=".7"/>
  <circle cx="102" cy="122" r="5" fill="#ffc4d4" opacity=".7"/>
  <ellipse cx="62" cy="172" rx="12" ry="7" fill="#fbf8ff"/>
  <ellipse cx="98" cy="172" rx="12" ry="7" fill="#fbf8ff"/>
</svg>
